<svg width="72" height="72" viewBox="0 0 72 72" fill="none" xmlns="http://www.w3.org/2000/svg">
<circle cx="36" cy="36" r="34" fill="#070F2B" stroke="#D1D5DB" stroke-width="4"/>
<g clip-path="url(#clip0_145_846)">
<path d="M40.4573 32.1511L41.9133 33.6289L35.9057 39.5473C35.5044 39.9486 34.9766 40.1487 34.4466 40.1487C33.9167 40.1487 33.3837 39.9465 32.9782 39.5421L30.0931 36.7462L31.5377 35.256L34.4342 38.0633L40.4573 32.1511ZM48.4446 36.0006C48.4446 42.8627 42.8622 48.445 36.0001 48.445C29.138 48.445 23.5557 42.8627 23.5557 36.0006C23.5557 29.1385 29.138 23.5562 36.0001 23.5562C42.8622 23.5562 48.4446 29.1385 48.4446 36.0006ZM46.3705 36.0006C46.3705 30.2824 41.7183 25.6302 36.0001 25.6302C30.2819 25.6302 25.6297 30.2824 25.6297 36.0006C25.6297 41.7188 30.2819 46.371 36.0001 46.371C41.7183 46.371 46.3705 41.7188 46.3705 36.0006Z" fill="white"/>
</g>
<defs>
<clipPath id="clip0_145_846">
<rect width="24.8889" height="24.8889" fill="white" transform="translate(23.5557 23.5562)"/>
</clipPath>
</defs>
</svg>
