<svg width="72" height="72" viewBox="0 0 72 72" fill="none" xmlns="http://www.w3.org/2000/svg">
<circle cx="36" cy="36" r="34" fill="#070F2B" stroke="#D1D5DB" stroke-width="4"/>
<g clip-path="url(#clip0_145_822)">
<path d="M24.6705 30.052C23.1875 28.568 23.1875 26.1537 24.6705 24.6697C26.1534 23.1857 28.5666 23.1868 30.0506 24.6697L34.542 29.1611L33.0757 30.6275L28.5853 26.1361C27.9123 25.462 26.813 25.462 26.1379 26.1361C25.4628 26.8112 25.4628 27.9094 26.1379 28.5846L30.6283 33.076L29.1619 34.5423L24.6705 30.052ZM35.969 41.4241C36.053 42.9869 35.4992 44.5788 34.3077 45.7693C32.3072 47.7687 25.9875 48.281 24.74 48.3629L23.5588 48.4407L23.6366 47.2595C23.7185 46.013 24.2308 39.6923 26.2302 37.6918C27.4269 36.4951 29.0271 35.9423 30.5971 36.0326L41.9486 24.6822C43.4315 23.1971 45.8478 23.1971 47.3297 24.6822C48.8137 26.1662 48.8137 28.5794 47.3297 30.0623L35.968 41.4231L35.969 41.4241ZM32.9014 36.6631C33.4086 36.9254 33.8835 37.2687 34.3077 37.6928C34.736 38.1211 35.0813 38.6023 35.3457 39.1146L45.8644 28.597C46.1911 28.2703 46.3705 27.8358 46.3705 27.3733C46.3705 26.9108 46.1911 26.4763 45.8644 26.1486C45.1903 25.4745 44.09 25.4745 43.416 26.1486L32.9025 36.662L32.9014 36.6631ZM32.8413 39.1592C32.132 38.4499 31.2007 38.0973 30.2705 38.0973C29.3403 38.0973 28.4069 38.4509 27.6986 39.1592C26.7321 40.1268 26.086 43.5894 25.8133 46.1883C28.4121 45.9145 31.8758 45.2684 32.8423 44.3029C34.2589 42.8853 34.2579 40.5768 32.8413 39.1592ZM42.8394 37.4574L41.373 38.9238L46.3705 43.9223V46.3697H43.9231L38.9246 41.3723L37.4582 42.8386L43.0644 48.4438H48.4445V43.0637L42.8394 37.4574Z" fill="white"/>
</g>
<rect x="24.0557" y="24.0562" width="23.8889" height="23.8889" stroke="#D1D5DB"/>
<defs>
<clipPath id="clip0_145_822">
<rect x="23.5557" y="23.5562" width="24.8889" height="24.8889" fill="white"/>
</clipPath>
</defs>
</svg>
