<svg width="72" height="72" viewBox="0 0 72 72" fill="none" xmlns="http://www.w3.org/2000/svg">
<circle cx="36" cy="36" r="34" fill="#070F2B" stroke="#D1D5DB" stroke-width="4"/>
<g clip-path="url(#clip0_145_834)">
<path d="M35.859 27.7051C31.5201 27.7767 27.8645 31.3617 27.71 35.6955C27.6187 38.2134 28.6579 40.6038 30.5619 42.2558C31.3822 42.9682 31.8519 44.0633 31.8519 45.3337C31.8519 47.049 33.2478 48.4448 34.963 48.4448H37.0371C38.7524 48.4448 40.1482 47.049 40.1482 45.3337V44.9448C40.1482 43.943 40.6201 42.9765 41.4777 42.2216C43.2697 40.6473 44.2964 38.3804 44.2964 36.0004C44.2964 33.7593 43.4159 31.6583 41.8179 30.0861C40.2198 28.514 38.1022 27.6543 35.859 27.7051ZM38.0742 45.3337C38.0742 45.9061 37.6096 46.3707 37.0371 46.3707H34.963C34.3906 46.3707 33.926 45.9061 33.926 45.2621C33.926 44.9344 33.8939 44.613 33.8462 44.2967H38.1167C38.0907 44.5103 38.0742 44.727 38.0742 44.9448V45.3337ZM40.1088 40.6639C39.5789 41.1296 39.1516 41.6564 38.8229 42.2226H37.0371V37.8836C38.2411 37.4543 39.1112 36.3136 39.1112 34.9633C39.1112 34.3899 38.6476 33.9263 38.0742 33.9263C37.5007 33.9263 37.0371 34.3899 37.0371 34.9633C37.0371 35.5368 36.5725 36.0004 36.0001 36.0004C35.4276 36.0004 34.963 35.5358 34.963 34.9633C34.963 34.3909 34.4995 33.9263 33.926 33.9263C33.3525 33.9263 32.889 34.3899 32.889 34.9633C32.889 36.3136 33.759 37.4543 34.963 37.8836V42.2226H33.1524C32.8309 41.6439 32.4192 41.1233 31.9204 40.6898C30.4934 39.4506 29.7136 37.6576 29.782 35.7701C29.8982 32.5201 32.6401 29.8321 35.8943 29.7792C35.9296 29.7792 35.9638 29.7792 36.0001 29.7792C37.6448 29.7792 39.191 30.4107 40.3639 31.566C41.5627 32.7451 42.2233 34.3204 42.2233 36.0014C42.2233 37.7851 41.4528 39.4838 40.1099 40.665L40.1088 40.6639ZM40.9623 26.1216L42.243 24.0371C42.5417 23.5476 43.1805 23.3952 43.669 23.697C44.1574 23.9967 44.3099 24.6344 44.0091 25.1229L42.7284 27.2073C42.5334 27.5267 42.1922 27.702 41.8438 27.702C41.6582 27.702 41.4715 27.6522 41.3025 27.5485C40.814 27.2488 40.6616 26.61 40.9623 26.1216ZM47.8358 30.4232L45.8312 31.3275C45.6933 31.3907 45.5481 31.4198 45.406 31.4198C45.0099 31.4198 44.6334 31.1927 44.4602 30.809C44.2238 30.2873 44.4561 29.6724 44.9787 29.438L46.9833 28.5337C47.5081 28.2962 48.1199 28.5306 48.3543 29.0522C48.5907 29.5739 48.3584 30.1888 47.8358 30.4232ZM27.905 25.1219C27.6053 24.6334 27.7587 23.9946 28.2472 23.6959C28.7377 23.3973 29.3745 23.5507 29.6731 24.0381L30.9507 26.1236C31.2505 26.6121 31.097 27.2509 30.6085 27.5496C30.4395 27.6533 30.2518 27.702 30.0682 27.702C29.7187 27.702 29.3786 27.5257 29.1826 27.2063L27.905 25.1208V25.1219ZM27.4041 30.8784C27.2267 31.2507 26.8555 31.4675 26.4687 31.4675C26.3183 31.4675 26.1659 31.4353 26.0217 31.3648L24.1571 30.4719C23.6407 30.2251 23.4219 29.606 23.6697 29.0896C23.9155 28.5721 24.5377 28.3512 25.0521 28.6021L26.9167 29.495C27.4331 29.7419 27.6519 30.362 27.4041 30.8784Z" fill="white"/>
</g>
<defs>
<clipPath id="clip0_145_834">
<rect width="24.8889" height="24.8889" fill="white" transform="translate(23.5557 23.5562)"/>
</clipPath>
</defs>
</svg>
